<?xml version="1.0" encoding="UTF-8" standalone="no"?>
<!DOCTYPE svg PUBLIC "-//W3C//DTD SVG 1.1//EN"
 "http://www.w3.org/Graphics/SVG/1.1/DTD/svg11.dtd">
<!-- Generated by graphviz version 2.40.1 (20161225.0304)
 -->
<!-- Title: G Pages: 1 -->
<svg width="217pt" height="524pt"
 viewBox="0.00 0.00 217.00 524.00" xmlns="http://www.w3.org/2000/svg" xmlns:xlink="http://www.w3.org/1999/xlink">
<g id="graph0" class="graph" transform="scale(1 1) rotate(0) translate(4 520)">
<title>G</title>
<polygon fill="#ffffff" stroke="transparent" points="-4,4 -4,-520 213,-520 213,4 -4,4"/>
<!-- A0 -->
<g id="node1" class="node">
<title>A0</title>
<polygon fill="none" stroke="#000000" points="42,-274 42,-306 118,-306 118,-274 42,-274"/>
<text text-anchor="start" x="52.915" y="-287" font-family="Helvetica,sans-Serif" font-size="10.00" fill="#000000">+A:HotDrink</text>
<polygon fill="none" stroke="#000000" points="42,-242 42,-274 118,-274 118,-242 42,-242"/>
<text text-anchor="start" x="62.0885" y="-255" font-family="Helvetica,sans-Serif" font-size="10.00" fill="#000000">+Drink()</text>
<polygon fill="none" stroke="#000000" points="42,-210 42,-242 118,-242 118,-210 42,-210"/>
<text text-anchor="start" x="55.9745" y="-223" font-family="Helvetica,sans-Serif" font-size="10.00" fill="#000000">+AddMilk()</text>
<polygon fill="none" stroke="#000000" points="42,-178 42,-210 118,-210 118,-178 42,-178"/>
<text text-anchor="start" x="51.5205" y="-191" font-family="Helvetica,sans-Serif" font-size="10.00" fill="#000000">+AddSugar()</text>
<polygon fill="none" stroke="#000000" points="42,-146 42,-178 118,-178 118,-146 42,-146"/>
<text text-anchor="start" x="71.1165" y="-159" font-family="Helvetica,sans-Serif" font-size="10.00" fill="#000000">Milk</text>
<polygon fill="none" stroke="#000000" points="42,-114 42,-146 118,-146 118,-114 42,-114"/>
<text text-anchor="start" x="66.6625" y="-127" font-family="Helvetica,sans-Serif" font-size="10.00" fill="#000000">Sugar</text>
</g>
<!-- A3 -->
<g id="node4" class="node">
<title>A3</title>
<polygon fill="none" stroke="#000000" points="0,-32 0,-64 66,-64 66,-32 0,-32"/>
<text text-anchor="start" x="9.939" y="-45" font-family="Helvetica,sans-Serif" font-size="10.00" fill="#000000">CupOfTea</text>
<polygon fill="none" stroke="#000000" points="0,0 0,-32 66,-32 66,0 0,0"/>
<text text-anchor="start" x="12.1585" y="-13" font-family="Helvetica,sans-Serif" font-size="10.00" fill="#000000">LeafType</text>
</g>
<!-- A0&#45;&gt;A3 -->
<g id="edge3" class="edge">
<title>A0&#45;&gt;A3</title>
<path fill="none" stroke="#000000" stroke-dasharray="5,2" d="M52.0002,-103.9583C48.2131,-89.6157 44.588,-75.8866 41.5384,-64.3368"/>
<polygon fill="#000000" stroke="#000000" points="54.6428,-113.9665 47.7389,-105.4467 53.3663,-109.1322 52.0898,-104.2979 52.0898,-104.2979 52.0898,-104.2979 53.3663,-109.1322 56.4407,-103.149 54.6428,-113.9665 54.6428,-113.9665"/>
</g>
<!-- A4 -->
<g id="node5" class="node">
<title>A4</title>
<polygon fill="none" stroke="#000000" points="170.3497,-50 83.6503,-50 83.6503,-14 170.3497,-14 170.3497,-50"/>
<text text-anchor="middle" x="127" y="-29" font-family="Helvetica,sans-Serif" font-size="10.00" fill="#000000">CupOfCoffee</text>
</g>
<!-- A0&#45;&gt;A4 -->
<g id="edge2" class="edge">
<title>A0&#45;&gt;A4</title>
<path fill="none" stroke="#000000" stroke-dasharray="5,2" d="M107.9166,-104.2734C113.4453,-83.3349 118.6357,-63.6777 122.2035,-50.1654"/>
<polygon fill="#000000" stroke="#000000" points="105.3572,-113.9665 103.5593,-103.149 106.6337,-109.1322 107.9102,-104.2979 107.9102,-104.2979 107.9102,-104.2979 106.6337,-109.1322 112.2611,-105.4467 105.3572,-113.9665 105.3572,-113.9665"/>
</g>
<!-- A1 -->
<g id="node2" class="node">
<title>A1</title>
<polygon fill="none" stroke="#000000" points="54,-484 54,-516 107,-516 107,-484 54,-484"/>
<text text-anchor="start" x="64.2435" y="-497" font-family="Helvetica,sans-Serif" font-size="10.00" fill="#000000">+I:ICup</text>
<polygon fill="none" stroke="#000000" points="54,-452 54,-484 107,-484 107,-452 54,-452"/>
<text text-anchor="start" x="66.064" y="-465" font-family="Helvetica,sans-Serif" font-size="10.00" fill="#000000">Refill()</text>
<polygon fill="none" stroke="#000000" points="54,-420 54,-452 107,-452 107,-420 54,-420"/>
<text text-anchor="start" x="64.3925" y="-433" font-family="Helvetica,sans-Serif" font-size="10.00" fill="#000000">Wash()</text>
<polygon fill="none" stroke="#000000" points="54,-388 54,-420 107,-420 107,-388 54,-388"/>
<text text-anchor="start" x="68.5575" y="-401" font-family="Helvetica,sans-Serif" font-size="10.00" fill="#000000">Color</text>
<polygon fill="none" stroke="#000000" points="54,-356 54,-388 107,-388 107,-356 54,-356"/>
<text text-anchor="start" x="63.553" y="-369" font-family="Helvetica,sans-Serif" font-size="10.00" fill="#000000">Volume</text>
</g>
<!-- A1&#45;&gt;A0 -->
<g id="edge1" class="edge">
<title>A1&#45;&gt;A0</title>
<path fill="none" stroke="#000000" d="M80,-345.4544C80,-332.5731 80,-319.2862 80,-306.3001"/>
<polygon fill="none" stroke="#000000" points="76.5001,-345.6845 80,-355.6845 83.5001,-345.6845 76.5001,-345.6845"/>
</g>
<!-- A2 -->
<g id="node3" class="node">
<title>A2</title>
<polygon fill="none" stroke="#000000" points="125,-436 125,-468 209,-468 209,-436 125,-436"/>
<text text-anchor="start" x="134.906" y="-449" font-family="Helvetica,sans-Serif" font-size="10.00" fill="#000000">+CupOfCoffee</text>
<polygon fill="none" stroke="#000000" points="125,-404 125,-436 209,-436 209,-404 125,-404"/>
<text text-anchor="start" x="144.2135" y="-417" font-family="Helvetica,sans-Serif" font-size="10.00" fill="#000000">BeanType</text>
</g>
</g>
</svg>
